<?xml version="1.0" encoding="utf-8"?>
<!-- Generator: Adobe Illustrator 21.0.0, SVG Export Plug-In . SVG Version: 6.00 Build 0)  -->
<svg version="1.1" id="图层_1" xmlns="http://www.w3.org/2000/svg" xmlns:xlink="http://www.w3.org/1999/xlink" x="0px" y="0px"
	 viewBox="0 0 2031.7 868" style="enable-background:new 0 0 2031.7 868;" xml:space="preserve">
<style type="text/css">
	.st0{fill:#96999B;}
	.st1{fill:#FCE4CE;}
	.st2{fill:#B5B7B9;}
	.st3{fill:#FDEBDB;}
	.st4{fill:#D1D3D3;}
	.st5{fill:#B3B5B7;}
	.st6{fill:#F89C49;}
	.st7{fill:#979A9C;}
	.st8{fill:#FDFDFD;}
	.st9{fill:#FEFEFE;}
</style>
<g>
	<path class="st0" d="M1669.7,868c-2.4-2.2-5.5-1.4-8.3-2.1c-31.4-7.8-52.6-27-64.4-56.9c-3.7-9.4-5.9-19-6.5-29.1
		c-0.9-3.3,0.4-6.9-0.8-10.2c0-0.5,0-1,0-1.5c1.1-3.3-0.2-6.8,0.7-10.2c1.4-19.9,8-37.8,20.2-53.6c13.3-17.3,30.7-28.1,52.2-32.3
		c1.9-0.4,3.9-0.8,5.8-1.2c1.6-0.9,3.5,0.2,5.1-0.8c2-0.1,3.9-0.2,5.9-0.2c3.6-0.5,7.3-0.5,10.9,0c23.8,1.6,45,9.6,61.9,26.8
		c14.6,14.8,22.9,33,26.2,53.5c0.4,2.3,0.8,4.6,1.2,6.9c0.8,2-0.3,4.2,0.7,6.2c0,3.8,0,7.7,0,11.5c-1,2,0.1,4.2-0.7,6.2
		c-2.6,19-8.3,36.6-20.2,52c-12.4,16.1-28.5,26.4-47.8,31.9c-4,1.1-8.1,2.1-12.2,3.2C1689.7,868,1679.7,868,1669.7,868z"/>
	<path class="st0" d="M260.7,867.1c-34.5-4.7-59.6-22.9-72.7-55.1c-15-37.1-12.3-73.5,11.6-106.6c14.8-20.5,35.6-31.4,60.6-34.6
		c22.5-2.9,43.8,0.2,63.5,11.9c22.6,13.4,36.2,33.5,42.3,58.7c6.9,29,4,56.9-11.3,82.8c-14.6,24.6-36.7,38.3-64.8,42.8
		c-1.1,0.2-2.4-0.2-3.1,1c-7,0-14,0-21,0C264.2,866.8,262.2,868.1,260.7,867.1z"/>
	<path class="st0" d="M495.7,868c-2.9-2.2-6.6-1.9-9.9-2.7c-29.9-7.5-48.3-28.1-52.2-58.6c-0.7-5.1-1-10.3-1-15.4
		c0-35.8,0-71.7,0-107.5c0-6.4,2.7-10.2,7.9-11.9c5.6-1.7,10.5-0.3,13.9,4c2,2.7,2.3,5.8,2.3,9c0,36-0.1,72,0.1,108
		c0,11.1,2.6,21.8,8.5,31.4c8.2,13.4,20.5,19.8,35.7,21.8c9.2,1.2,18.3,0.8,27.2-1.5c19.9-5.1,33.6-22.2,35.6-43.4
		c0.7-7,0.8-14,0.8-20.9c0-32.3,0-64.7,0-97c0-5.9,2.8-9.7,8-11.3c5.7-1.7,10.4-0.3,13.8,4.1c1.7,2.2,2.3,4.7,2.2,7.5
		c0,37,0.2,74-0.2,111c-0.1,14.3-3.3,28.1-10.6,40.6c-11.4,19.6-29.5,28.6-51.1,31.8c-1.1,0.2-2.4-0.2-3.1,1c-0.7,0-1.3,0-2,0
		c-1.7-0.8-3.3-0.8-5,0c-4.3,0-8.7,0-13,0c-2-0.8-4-0.8-6,0C497.1,868,496.4,868,495.7,868z"/>
	<path class="st1" d="M2031.7,463c-0.3,0-0.6,0.1-0.9,0c-2-2.4-2-4.7,0-7.1c0.3,0,0.6,0,0.9,0C2031.7,458.3,2031.7,460.7,2031.7,463
		z"/>
	<path class="st2" d="M497.7,868c2-1.7,4-1.4,6,0C501.7,868,499.7,868,497.7,868z"/>
	<path class="st3" d="M983.7,0.8c0-0.3,0-0.6,0-0.8c1.7,0,3.3,0,5,0c0,0.3,0,0.6,0,0.8C987.1,2.5,985.4,2.5,983.7,0.8z"/>
	<path class="st4" d="M260.7,867.1c1.8,0,3.6-0.7,5.1,0.9c-1.7,0-3.3,0-5,0C260.7,867.7,260.7,867.4,260.7,867.1z"/>
	<path class="st5" d="M516.7,868c1.7-1.4,3.3-1.5,5,0C520.1,868,518.4,868,516.7,868z"/>
	<path class="st6" d="M2030.9,456c0,2.4,0,4.7,0,7.1c-2.4,9.8-8.1,16.5-18.2,19.1c-1.6,0.8-3.5-0.2-5.2,0.8
		c-2.3,0.1-4.6,0.2-6.8,0.3c-2,0.8-4.2-0.3-6.2,0.7c-1.9,0.1-3.9,0.2-5.8,0.3c-2,0.8-4.2-0.3-6.2,0.8c-1.6,0.1-3.2,0.2-4.8,0.2
		c-1.7,0.8-3.6-0.2-5.2,0.7c-11,1.3-22.1,2.4-33.1,4c-12.8,1.8-25.6,4.1-38,8c-5.7,1.8-11.2,4.1-16.8,5.9
		c-10.4,3.4-17.2,0.5-23.3-7.6c-5.2-6.9-3.8-22.1,1.4-27.7c9-9.8,20.8-13.5,33-16.3c10.3-2.4,20.7-4.3,31.1-6.4
		c1.5-0.7,1.5-2,1.5-3.4c0-20.8,0-41.5,0-62.3c0-0.5-0.2-1-0.4-1.4c-0.1-29.9-0.2-59.9-0.3-89.8c-0.7-4.7-0.2-9.4-0.3-14.2
		c0-2.9-0.9-4-3.8-2.9c-11.1,1.7-22.3,3.3-33.4,5.1c-23.2,3.9-46.3,7.9-69.5,11.8c-8.2,1.4-16.4,2.8-24.7,4
		c-2.5,0.4-3.6,1.4-3.5,3.9c0.1,3,0.1,6,0.2,9c-0.6,1.1-0.4,2.3-0.4,3.4c0,32.3,0,64.6,0,96.9c0,1.3-0.4,2.7,0.5,3.9l0,0
		c7.2,1.2,14.4,0.2,21.6,0.5c3.1,0.1,6.2-0.4,9.3,0.3c3.8,0.2,7.7,0,11.3,0.7c9.8,1.9,15.7,8.3,18.8,17.5c0.6,3.3,0.6,6.6,0,9.9
		c-3.3,9.9-9.6,16.4-20.2,18.2c-3.6,0.5-7.3,0.5-10.9,0c-10.6-0.1-21.2-0.2-31.8-0.2c-8.2-1-16.5-0.2-24.7-0.5
		c-2.5-0.1-5,0.3-7.4-0.3c-11-0.2-22-0.5-33-0.5c-11.8,0.1-22.3-7.6-23.8-18.6c-1.6-11.2,3.8-23.6,15.5-26.5
		c0.8-0.2,1.5-0.5,2.3-0.8c6.8-0.8,13.7-0.1,20.6-0.4c1.8-0.1,3.6,0.5,5.3-0.5c0.7-6.6,0.4-13.1,0.2-19.7c0.8-1.6,0.4-3.3,0.4-4.9
		c0-91.4,0-182.8,0-274.1c0-5.7,0-5.7-5.5-5.7c-11.6-0.2-23.3,0.4-34.9-0.3c-11.8-0.7-21.8-11.5-19.9-26.1
		c1.4-10.8,9.3-19.9,23-19.9c39.9-0.1,79.9-0.1,119.8,0c11.4,0,21.7,8.8,23.1,18.7c2,14.4-6.8,25.3-19.1,27.3
		c-11.4,0.8-22.9,0.1-34.4,0.4c-1.8,0-3.7-0.5-5.4,0.5c-0.1,16.3-0.3,32.6-0.3,48.9c-0.1,29.5,0,58.9-0.2,88.4
		c0,4.2,1.3,4.4,4.7,3.8c20.4-3.5,40.8-6.8,61.2-10.3c21.6-3.6,43.1-7.2,64.7-10.9c1.3-0.2,2.5-0.7,3.8-1.1
		c0.9-10.4,0.8-20.7,0.1-31.1c-0.1-26.6-0.2-53.2-0.2-79.8c-0.7-13.9-0.1-27.8-0.3-41.7c0-1.8,0.4-3.6-0.5-5.4l0,0
		c-4.8-0.8-9.6-0.7-14.3,0c-7.6,0-15.3-0.1-22.9,0.1c-10.6,0.3-18.1-4.8-22.1-14.1c-3.7-8.7-2.1-17.5,4.2-24.8
		c4.1-4.7,9.9-6.9,16.2-7.3c6.6-0.6,13.2-0.1,19.8-0.3c1.8-0.1,3.6,0.4,5.4-0.4c9.6-0.1,19.2-0.2,28.8-0.2
		c7.9-0.7,15.9-0.1,23.8-0.3c1.8-0.1,3.6,0.4,5.4-0.4c9.9-0.1,19.9-0.2,29.8-0.3c3.3-0.5,6.6-0.5,9.9,0c20,3.8,23.7,22.1,18.2,33.2
		c-4.2,8.3-11.1,12.7-20.4,12.9c-10,0.3-20,0.4-30,0.3c-3.9-0.1-5,1.2-5,5.1c0.3,45.3,0.1,90.6,0.7,135.9
		c0.7,57.6,0.4,115.3,0.9,172.9c0.2,18.8,0.4,37.6,0.4,56.5c0,4,1.3,4.7,4.9,4.3c8.8-0.9,17.6-1.7,26.4-2.1
		C2019.2,436.1,2027.7,442.7,2030.9,456z"/>
	<path class="st6" d="M570.8,449.8c-9.3-10.2-11.1-21.3-4.8-30.8c3.6-5.4,8.5-8.9,14.9-10c8.9-1.5,17.7-3,26.7-3.9
		c4.7-0.5,6.2-2.1,6.2-7.1c-0.5-40.7-0.7-81.3-0.8-122c0-4.7-1.5-5.6-5.7-5.2c-5.8,0.6-11.6,0.2-17-2.9
		c-8.9-5.1-13.7-15.7-11.2-25.6c2.5-9.9,11.1-16.9,21.3-17.4c3.9-0.2,9,1.6,11.5-1.1c2.5-2.7,0.7-7.6,0.7-11.6c0-29.7-0.2-59.3,0-89
		c0-5.2-1.9-5.7-6.1-5.1c-9.2,1.3-18.5,2.4-27.7,3.7c-14.7,2-26.1-5.5-28.2-18.7c-2.2-13.6,6.5-24.9,21-26.9
		c38.5-5.3,77.1-8.8,116-8c29.7,0.7,59.2,3.1,87.6,12.7c4.6,1.5,9,3.5,13.5,5.2c7,4,14.2,7.6,20.3,13.1c14.9,13.3,22,29.8,20,49.9
		c-2.2,21.8-13.1,39.6-25.7,56.6c-5.9,7.9-13.1,14.5-21,20.3c-1.8,1.3-4.4,2.3-1.8,5.7c10.2,13.4,14.8,29.4,19.2,45.3
		c4.9,17.7,7.3,35.9,10.2,54c0.8,1.7-0.2,3.6,0.8,5.2c0.1,1.6,0.2,3.2,0.3,4.8c0.7,1.7-0.2,3.6,0.7,5.2c0.1,2.3,0.2,4.5,0.3,6.8
		c0.8,2.3-0.3,4.9,0.7,7.2c0.1,3.3,0.2,6.5,0.3,9.8c0.9,4-0.4,8.2,0.7,12.2c0.1,2.6,0.2,5.2,0.3,7.8c0.7,1.7-0.2,3.6,0.7,5.2
		c1.1,18,3.2,35.8,8.3,53.1c2.6,8.9,8.1,15.5,18.6,15.7c2.8,0.7,5.6,0.7,8.4,0c10-3.2,14.3-11.5,17.8-20.4
		c2.4-5.9,3.6-12.2,7.3-17.6c6-8.6,17.8-11.5,28.3-7c9,3.8,15.5,15.2,13,24.5c-4.9,18.2-11.7,35.7-26,48.9
		c-12.8,11.8-27.8,19-45.7,18.3c-19.3-0.7-37-5.6-50.3-20.8c-9.5-10.8-15.6-23.3-18.6-37.4c-2.7-12.9-4.8-25.9-6.2-39
		c-0.4-3.9-0.3-7.9-1.1-11.8c-0.9-2,0.3-4.2-0.8-6.2c-0.1-2-0.2-3.9-0.2-5.9c-0.9-2.7,0.3-5.6-0.7-8.2c-0.1-4.3-0.2-8.5-0.3-12.8
		c-0.9-3,0.4-6.2-0.8-9.2c-0.1-1.9-0.2-3.9-0.2-5.8c-0.8-2,0.2-4.2-0.7-6.2c-0.1-1.6-0.2-3.2-0.3-4.8c-0.8-1.7,0.2-3.6-0.8-5.2
		c-2.7-22.6-6.2-45-13.3-66.7c-1.6-0.8-2.2-2.4-3-3.9c-6.1-10.8-17.7-16.2-29.6-13c-17.3,4.8-34.8,8.8-52.5,11.8
		c-3.9,0.7-5.2,2.8-5.2,6.5c0.1,25.9,0,51.9,0,77.8c0,3.5,2,7.2-0.6,10.6c0,10.8,0.1,21.6-0.1,32.4c-0.1,3.9,1.8,3.9,4.6,3.5
		c8.7-1.3,17.4-2.4,26-3.9c14.4-2.6,25.2,5.5,28.3,17.7c0.1,0.5,0.3,1,0.4,1.4c0.6,2,0.5,3.9,0,5.9c-3.5,13.5-11.4,19.3-25.1,21.2
		c-16.6,2.3-33.1,4.5-49.6,7.4c-9.8,1.7-19.9,2.5-29.7,4.3c-8.4,1.5-17,2-25.4,3.8C582.5,456,576.1,454.6,570.8,449.8z"/>
	<path class="st6" d="M983.7,0.8c1.7,0,3.4,0,5.1,0c12,1.8,18.1,10.2,22.3,20.4c13.7,33.1,27.2,66.3,40.9,99.4
		c14.8,35.7,29.8,71.3,44.5,107.1c9.2,22.4,18.3,45,27.2,67.5c1.5,3.9,2.8,5.3,7.2,3.1c10.1-5,20.5-9.4,30.9-13.9
		c16.3-7.2,31.2,0.2,35.2,15.7c0.4,3,0.5,5.9,0,8.9c-3.1,13.1-13.8,17.1-24.8,21c-18.8,6.8-37.2,14.5-54.9,23.8
		c-12.6,6.6-24.9,13.7-34.6,24.7c-6.4,7.2-16.2,8.5-25.6,4.5c-6.9-2.9-13-11.3-13.1-20.3c-0.1-11.4,6.5-18.7,14.4-25.2
		c7-5.8,15-10.4,23.1-14.6c2.4-1.2,2.7-2.3,1.6-5c-5.6-13.4-10.8-26.9-16.2-40.4c-0.9-2.3-2.5-4.4-2.8-6.7c-0.8-5.1-3.9-5.4-7.9-4.8
		c-32.1,5.3-64.1,10.7-96.2,16c-2.8,0.5-4,1.5-4.4,4.7c-1.1,9.3-3.4,18.5-3.8,28c-1.5,3.5,1.7,2.4,3.1,3.1
		c10.8,2,17.3,8.4,19.2,19.2c0.4,2.3,0.5,4.6,0,6.9c-3.9,14.1-11,19.4-26.9,20c-3-1.1-6.2,0.2-9.2-0.7c-2.9-0.1-5.9-0.2-8.8-0.3
		c-3-1.1-6.2,0.1-9.2-0.7c-3.3-0.1-6.5-0.2-9.8-0.3c-3-1.1-6.2,0.2-9.2-0.7c-2.9-0.1-5.9-0.2-8.8-0.2c-3-1.1-6.2,0.2-9.2-0.7
		c-2.9-0.1-5.9-0.2-8.8-0.3c-1.6-1-3.5,0-5.2-0.7c-9.8-1.3-16.7-8.4-18.3-18.3c-0.4-3-0.5-5.9,0-8.9c1.9-10.3,8.2-16.1,18.3-18.2
		c4-0.5,7.9-0.5,11.9,0c2.6,0.1,5.2,0.2,7.8,0.3c2.3,1,4.9-0.1,7.3,0.7c1.5,0.1,3,0.1,4.5,0.4c3.1,0.4,4.3-0.8,4.9-4
		c4.7-24.4,9.8-48.7,14.6-73c4.8-24.1,9.5-48.1,14.3-72.2c3-14.9,5.9-29.9,8.8-44.8c1.7-20.6,7.6-40.4,11-60.7
		c0.3-1.5,0.6-2.9,0.8-4.4c0.3-2.2-0.5-3.1-2.7-2.9c-3,0.2-6,0.6-8.9,1.1c-16.1,2.3-32.3,4.3-48.4,6.8c-3.4,0.5-6.6,0.3-9.8-0.8
		c-13.2-1.5-18.9-11.5-20-21.2c1-15.6,8.4-23,24.2-25.1C920.6,9.7,952.2,5.2,983.7,0.8z"/>
	<path class="st6" d="M1338,422.1c8.8,0,17.6,0.4,26.4-0.1c12.6-0.8,23.9,5.1,27.5,19.1c0.5,2.6,0.5,5.3,0,7.9
		c-3.8,13.2-12.5,19.6-26.2,19.2c-9.3,0.7-18.5,0.1-27.8,0.3c-1.8,0-3.6-0.4-5.4,0.4c-10.9,0.1-21.9,0.2-32.8,0.3
		c-9.3,0.7-18.5,0.1-27.8,0.3c-1.8,0-3.6-0.4-5.4,0.4c-10.9,0.1-21.9,0.2-32.8,0.3c-2,0.5-3.9,0.5-5.9,0
		c-11.7-1.1-19.7-8.4-21.2-19.2c-0.5-2.6-0.5-5.3,0-7.9c2-11.6,9.9-18.2,21.8-19c3.5-0.2,7-0.2,10.5-0.3c10.8-0.7,21.6-0.1,32.3-0.3
		c1.8,0,3.7,0.5,5.4-0.5c0.2-1.5,0.5-2.9,0.5-4.4c-0.1-75.4-0.2-150.8-0.3-226.2c0-0.8-0.1-1.7-0.2-2.5c-0.7-17-0.1-34.1-0.3-51.1
		c-0.1-4.9,0.6-9.9-0.5-14.8c-4,0-8,0.1-12.1,0.1c-5.4,0.9-10.8-0.4-16.2,0.7c-5.6,0.1-11.2,0.2-16.8,0.3
		c-5.1,0.9-10.2-0.4-15.3,0.7c-5,0-10,0.3-14.9,0c-3.7-0.2-4.2,1.6-3.7,4.5c1.5,9.1,3,18.2,4.5,27.3c2.4,14.6,5.3,29.2,6.8,43.9
		c1,9.2-5.4,19.4-18.4,22.7c-3,0.4-5.9,0.5-8.9-0.1c-10.7-1.9-17.3-10.1-18.9-21.4c-1.7-11.7-3.8-23.4-5.7-35.1
		c-1.8-11.4-3.6-22.8-5.2-34.2c-1.3-9.3-3.3-18.6-4.2-28c-1.5-15,9.8-25.6,24.1-25.4c4.3,0.1,8.6-0.2,13-0.3
		c7.1-1,14.2,0.4,21.2-0.7c7.3-0.1,14.5-0.2,21.8-0.3c7.1-1,14.2,0.4,21.2-0.7c7.3-0.1,14.5-0.2,21.8-0.3c7.4-1,14.8,0.5,22.2-0.8
		c6.9-0.1,13.9-0.2,20.8-0.3c6.4-1,12.8,0.4,19.2-0.7c5.3-0.1,10.6-0.2,15.8-0.3c4.4-0.9,8.8,0.4,13.2-0.7c3.9-0.1,7.9-0.2,11.8-0.3
		c3.7-0.9,7.5,0.4,11.2-0.7c2.9-0.1,5.9-0.2,8.8-0.2c3-0.9,6.2,0.3,9.2-0.7c2.6-0.1,5.2-0.2,7.8-0.2c2.3-0.9,4.9,0.3,7.2-0.7
		c15.2,0.4,27.9,9.9,25.7,30.7c-1.1,3.3,0.1,6.8-0.7,10.2c-0.5,8.4-0.5,16.7,0,25.1c0.9,2.7-0.4,5.5,0.8,8.1
		c0.4,8.7-1,16.7-7.7,23.1c-3.5,3.4-7.8,4.7-12.3,5.9c-2.3,0.5-4.6,0.5-6.9,0c-11.4-0.4-18.5-12.7-18.9-21.3c0-1-0.2-2-0.3-3
		c-0.9-4.4,0.4-8.8-0.7-13.2c0.6-2.8-0.1-5.3-1.2-7.8c-0.5-1.6-0.5-3.3,0-4.9c0-1.4,0-2.7,0.1-4.1c-3-0.9-6.1-0.7-9.1-0.1
		c-3.6,0.1-7.2,0.2-10.8,0.3c-4.4,0.9-8.8-0.4-13.2,0.7c-5.6,0.1-11.2,0.2-16.8,0.3c-5.7,1-11.5-0.5-17.2,0.7
		c-3.5-0.8-5,0.2-4.9,4.2c0.3,13.6,0.2,27.3,0.3,40.9c0.6,2,0.3,4,0.3,6c0,80.7,0,161.4,0,242.1c0,2-0.5,4,0.5,5.9l0,0
		C1328.5,422.9,1333.3,422.7,1338,422.1z"/>
	<path class="st6" d="M1578.5,484.9c-4.3,0.1-8.6,0.2-12.8,0.2c-10,0.5-19.9,0.5-29.9,0c-22.2-0.6-42.3-7.3-60.1-20.4
		c-10.6-7.8-18.8-17.8-25.7-29c-8.5-13.5-13-28.4-16-43.9c-0.8-3.9-0.3-8-0.4-11.9c-0.7-5.9-0.1-11.9-0.3-17.8
		c-0.1-1.8,0.4-3.6-0.4-5.4c0-12.2,0-24.4,0-36.5c1-8.9,0.2-17.9,0.4-26.8c0.1-2.5-0.3-5,0.3-7.4c0.1-4.2,0.2-8.5,0.3-12.7
		c0.9-1.7,0-3.6,0.7-5.3c1.3-17.4,4.7-34.4,10.2-51.1c4.9-14.7,12.2-28,23-39.1c10.4-10.7,23.3-17.4,38.2-19.8
		c2.9-0.5,5.9-0.9,8.9-1.3c4.6-0.5,9.3-0.5,13.9,0c27.1,3.2,52.1,12.3,74.4,28.1c0.8,0.6,1.7,0.9,2.6,1.4c1.3-3,0.5-6.1,0.5-9.2
		c0.3-11-0.4-22.1,0.4-33.1c1.4-11.3,8.8-18.9,20.2-20.2c2-0.5,3.9-0.5,5.9,0c15.7,5.5,20,11.5,20,28.2c0,30.6,0,61.3,0,91.9
		c0,14.3-7.9,24.2-22.9,25.6c-7.6,0.7-15.2-2.9-19.7-10.2c-7.1-11.7-16.2-21.8-26.3-30.7c-11.7-10.4-25.5-17.6-40.7-21.7
		c-9.4-2.5-18.7-5.4-28.5-3.5c-8.6,1.7-14.9,6.6-19.3,14.2c-7.9,13.7-11.4,28.8-13.6,44.3c-0.6,4.3-1.5,8.5-1.1,12.8
		c-1,2,0.1,4.2-0.7,6.2c-0.1,13.3-0.2,26.5-0.3,39.8c-0.7,11.8-0.7,23.7,0,35.5c0.1,15.5-1.1,31,4.9,46.1
		c7.7,19.6,27.8,35.3,47.1,35.7c1.6,1.1,3.5,0,5.1,0.8c11.4,0.6,22.7,0.3,34.1,0c2.3-0.8,4.9,0.3,7.2-0.7c11-2.5,20.9-7,28.3-15.8
		c4.2-5,8.6-9.9,11.5-16c3.4-7.1,5-14.7,6.1-22.5c0.2-1.3,0.6-2.5,0.9-3.7c1.2-2.9-0.2-6.1,0.8-9.1c0.3-6.7,0.8-13.4,0-20.1
		c-0.5-2.3-0.5-4.6,0-6.9c1.4-10.1,7.5-16.2,19.2-19.2c2.3-0.6,4.6-0.5,6.9,0c14.1,3.9,18.5,9.8,20.2,27.2c0.5,5.3,0.5,10.6,0,15.9
		c-0.1,13.8-2.6,27.3-5.9,40.7c-4.2,16.9-13.1,30.9-24.3,43.9c-13.9,16.2-32.2,25.1-52.1,31.1c-1.9,0.6-3.9,0.4-5.9,0.7
		C1582,484.9,1580.2,484,1578.5,484.9z"/>
	<path class="st0" d="M1865.9,857.9c-2,3.9-4.8,7-9.2,8.2c-2,0.4-3.9,0.5-5.9-0.1c-5.5-1.3-8.9-5.4-8.9-11.3c0-38.1,0-76.3,0-114.4
		c0-18,0.1-36,0-54c0-6.2,2.3-11.1,7.9-13.7c6.5-3,14-2,18.3,3.2c7.9,9.8,15.2,20,22.7,30.2c28,38,56,76,84,113.9
		c3.2-0.8,1.5-3.3,1.5-4.9c0.1-27.1,0-54.2,0.1-81.3c0.1-17.9-0.4-35.9,0.3-53.8c1.1-6.9,8.2-9.3,13-8.9c6,0.5,10.6,5.2,11.1,11.4
		c0.1,1,0,2,0,3c0,54.9,0,109.9,0,164.8c0,8.6-2.7,12.5-11,15.7c-2.3,0.5-4.6,0.6-6.9,0c-4.3-0.2-6.9-3-9.2-6.1
		c-27.5-37.7-54.9-75.4-82.4-113.1c-7.9-10.9-15.8-21.9-23.7-32.8c-2.7,1.1-1.2,3.5-1.2,5.1c-0.1,44.4-0.1,88.8-0.1,133.3
		C1866.2,854.3,1866.5,856.2,1865.9,857.9z"/>
	<path class="st0" d="M823.8,826c-0.1,8-0.1,16-0.2,24c0,8.3-3.1,13.2-9.4,15.4c-6.9,2.4-13,0.3-17.8-6.4
		c-28.9-39.5-57.7-79.1-86.5-118.6c-6.6-9-13.1-18-19.9-27.3c-1.6,1.8-1,3.7-1,5.3c0,44.8,0,89.6,0,134.4c0,8.4-4.2,13.1-11.5,13.2
		c-6.9,0.1-11.8-4.1-12.5-11c-0.2-1.6-0.1-3.3-0.1-5c0-53.3,0.1-106.6-0.1-159.9c0-7,1.7-12.8,7.2-17.1c8.5-3.9,16.9-0.9,22.1,6.3
		c15.8,22.1,32.1,43.8,48.3,65.7c0.3,0.4,0.7,0.7,1.1,1c13.5,14.7,24.3,31.6,36.3,47.5c6,7.9,12,15.8,18.1,23.9
		c0.3-7.7,1.2-15.2,1.3-22.7c0.2-36.4,0.1-72.9,0.1-109.3c0-1.8-0.3-3.7,0.3-5.5c2-6.5,6.6-9.7,12.9-8.8c7.1,1,11.2,5.5,11.2,12.8
		c0.1,21.7,0,43.3,0,65C823.7,774.7,823.8,800.3,823.8,826z"/>
	<path class="st0" d="M1069.7,768.2c0,0.8,0,1.7,0,2.5c-1.1,3,0.2,6.2-0.8,9.2c-2.6,18.1-8.2,34.9-19.9,49.5
		c-14.9,18.6-34.3,29.3-57.5,33.5c-2.9,0.5-5.9,0.8-8.9,1.3c-3,0.9-6.1-0.4-9.1,0.7c-17-0.1-33.9-0.5-50.9,0c-8,0.3-16.9-7-17.1-15
		c-0.5-1.3-0.3-2.6-0.3-4c0-51.3,0-102.6,0-154c0-1.3-0.2-2.7,0.3-4c0.5-9.7,9.7-15.4,18.1-15.2c17,0.4,34-0.2,50.9,0.2
		c25.4,0.6,48.2,8.5,66.7,26.4c14.7,14.2,23.3,31.9,26.5,52.2c0.3,2.1,0.8,4.2,1.1,6.3C1069.8,761.4,1068.6,764.9,1069.7,768.2z"/>
	<path class="st0" d="M1149.6,822.9c-4.6,11.4-9.3,22.8-13.7,34.2c-1.7,4.5-4.5,7.6-9.1,9c-2,0.5-3.9,0.5-5.9,0
		c-10.6-2.3-12.1-10.7-8.7-19.4c10-25.8,20.6-51.3,30.9-77c10.4-25.8,20.5-51.7,30.9-77.5c2.1-5.1,3.8-10.3,7.8-14.7
		c10.1-11.2,29.3-6.7,35,7.5c20.4,51.3,41.2,102.5,61.9,153.7c1,2.5,2,4.9,3.1,7.3c4.1,9.4,1.5,15.9-8,20c-2,0.5-3.9,0.5-5.9,0
		c-7.8-0.6-8.7-7.3-10.9-12.5c-4.3-10.1-8.2-20.4-12.2-30.6c-1-0.8-2.2-0.5-3.4-0.5c-29.4,0-58.9,0-88.3,0
		C1151.8,822.5,1150.6,822.3,1149.6,822.9z"/>
	<path class="st0" d="M1388.9,695c-0.1,2-0.3,4-0.3,6c0,50.2,0,100.5,0,150.7c0,6.8-2.3,11.9-9,14.4c-2,0.6-3.9,0.5-5.9,0.1
		c-5-0.6-7.9-3.6-9.2-8.3c-0.7-1.8-0.3-3.6-0.3-5.4c0-50.7,0-101.4,0-152.1c0-1.8,0.5-3.7-0.5-5.4l0,0c-1.7-1-3.6-0.5-5.3-0.5
		c-16.2-0.2-32.4,0.4-48.6-0.3c-5.9-1.4-8.4-5.5-7.9-12.8c0.4-4.8,3.9-8.2,9.4-8.3c9.2-0.2,18.3-0.1,27.5-0.1c33.3,0,66.6,0,99.9,0
		c5.9,0,10.3,2.1,12.2,8.1c0.4,2,0.5,3.9-0.1,5.9c-1.5,3.3-3.9,5.7-7.2,7.2c-15,0.8-29.9,0.1-44.9,0.4
		C1395.5,694.6,1392.2,693.9,1388.9,695z"/>
	<path class="st7" d="M1510.8,866.1c-5-1.2-8.8-5.6-8.8-10.4c0-57.3,0.1-114.7-0.1-172c-0.1-11.6,11.1-15,18.7-10.8
		c5.4,3,5.9,8.1,5.9,13.3c0.1,14.2,0,28.3,0,42.5c0,40.8,0,81.7,0,122.5c0,8.2-2.5,11.9-9.8,14.9
		C1514.7,866.6,1512.7,866.7,1510.8,866.1z"/>
	<path class="st8" d="M799.5,680.1c0,47,0,93.9,0,141.5c-2.6-1.3-3.5-3.6-4.8-5.3c-16.7-22.6-33.4-45.3-50-68
		c-0.5-0.7-0.8-1.4-1.2-2.2c1.9,0.5,2.9,2.1,4.2,3.4c15.4,15.4,30.8,30.8,46.2,46.2c1.3,1.3,2.2,2.9,3.3,4.3c0.5-0.2,1-0.5,1.5-0.7
		c0-1.7,0-3.4,0-5.1c0-36.1,0-72.2,0-108.3C798.8,683.9,798.1,681.8,799.5,680.1z"/>
	<path class="st8" d="M1705.8,104.2c12.2,0,24.3,0.1,36.5-0.1c3.4-0.1,4.5,0.9,4.5,4.4c-0.2,53.8-0.2,107.6-0.2,161.4
		c0,37.8-0.1,75.6-0.2,113.5c0,2,0.4,4-0.6,5.9c0-48.5-0.1-97-0.1-145.5c0-44.3-0.1-88.7,0.1-133c0-4.5-1-6.1-5.8-5.9
		c-9.8,0.4-19.7,0.1-29.5,0.1C1709,105,1707.2,105.5,1705.8,104.2z"/>
	<path class="st8" d="M1323.8,422c-1.1-1.1-0.7-2.5-0.7-3.8c-0.1-82.7-0.2-165.4-0.3-248.2c0-0.7,0.1-1.3,0.1-2
		c1.5,1.8,0.8,3.8,0.8,5.8C1323.8,256.5,1323.8,339.3,1323.8,422z"/>
	<path class="st8" d="M1363.7,695c1.4,1.8,0.7,3.8,0.7,5.8c0.1,52.4,0.1,104.8,0.1,157.2c-1.5-1.7-0.8-3.8-0.8-5.7
		C1363.7,799.8,1363.7,747.4,1363.7,695z"/>
	<path class="st8" d="M905.6,688.1c0,54,0,107.9,0,161.9c-1.4-1.6-0.8-3.5-0.8-5.3c0-50.5,0-100.9,0-151.4
		C904.8,691.6,904.2,689.6,905.6,688.1z"/>
	<path class="st8" d="M1865.9,857.9c0-46.5,0-93,0.1-139.5c0-1.6-1.1-3.6,0.8-5c0.1,0,0.3,0.1,0.4,0.2c0.1,0.1,0.2,0.3,0.3,0.4
		c-1.4,1.8-0.8,3.8-0.8,5.8c0,44.1,0,88.2-0.1,132.3C1866.7,854.1,1867.4,856.2,1865.9,857.9z"/>
	<path class="st8" d="M1976.6,680.1c0,45.9,0,91.8-0.1,137.7c0,0.5,1.9,4-1.8,2.3c1.8-1.6,1-3.7,1-5.6c0-42.9,0-85.7,0.1-128.6
		C1975.8,683.9,1975.1,681.8,1976.6,680.1z"/>
	<path class="st8" d="M1792.8,409.9c-1.4-1.2-0.8-2.8-0.8-4.2c0-31.9,0-63.8,0.1-95.6c0-1.5-0.3-3,0.6-4.4
		C1792.7,340.5,1792.7,375.2,1792.8,409.9z"/>
	<path class="st8" d="M1149.6,822.9c1.2-1.3,2.8-0.9,4.2-0.9c28.9,0,57.9,0,86.8,0c1.4,0,3-0.7,4.1,0.9
		C1213,823,1181.3,823,1149.6,822.9z"/>
	<path class="st8" d="M1927.8,378.8c1.3,4.7,0.5,9.6,0.6,14.4c0.2,16.1,0.2,32.3,0.1,48.4c0,1.5,1.3,3.9-1.7,4.3
		c1.3-1.9,1-4.2,1-6.3C1927.8,419.3,1927.8,399,1927.8,378.8z"/>
	<path class="st8" d="M1275.8,124.1c1.2,0.6,0.9,1.7,0.9,2.6c0,21.1,0,42.2-0.1,63.3c-1.4-1.6-0.8-3.5-0.8-5.2
		C1275.7,164.5,1275.7,144.3,1275.8,124.1z"/>
	<path class="st8" d="M1388.9,695c1.5-1.6,3.4-0.8,5.1-0.8c16.5-0.1,33.1-0.1,49.6-0.1c-1.5,1.5-3.5,0.8-5.2,0.8
		C1422,695,1405.5,695,1388.9,695z"/>
	<path class="st8" d="M1309.8,694.2c16.6,0,33.2,0,49.7,0c1.4,0,3-0.6,4.2,0.8c-16.2,0-32.5,0-48.7,0
		C1313.3,695,1311.4,695.6,1309.8,694.2z"/>
	<path class="st8" d="M1925.8,65.9c0.9,0.7,0.8,1.8,0.8,2.7c0,14.8,0,29.5,0,44.3c-1.2-1.2-0.8-2.8-0.8-4.2
		C1925.8,94.4,1925.8,80.2,1925.8,65.9z"/>
	<path class="st8" d="M1606.6,144c0,13.9,0,27.9,0.1,41.8c0,0.2-0.1,0.4-0.2,0.4c-0.2,0.1-0.5,0.1-0.8,0.1c0-12.4,0-24.7,0.1-37.1
		C1605.8,147.5,1605.2,145.6,1606.6,144z"/>
	<path class="st8" d="M1793,105c0.9-1.5,2.4-0.8,3.6-0.8c12,0,24.1,0,36.1,0c-1.6,1.4-3.5,0.8-5.3,0.8C1816,105,1804.5,105,1793,105
		z"/>
	<path class="st8" d="M1276.5,423c-6.7,1.6-13.5,0.6-20.3,0.8c-5.8,0.2-11.6,0-17.4,0c2.3-1.6,4.8-0.7,7.3-0.8
		C1256.2,422.9,1266.4,423,1276.5,423z"/>
	<path class="st8" d="M1479.7,356.3c-1.2-11.8-1.1-23.7,0-35.5C1479.7,332.6,1479.7,344.4,1479.7,356.3z"/>
	<path class="st8" d="M1433.6,286c-0.1,11.4,0.6,22.8-0.8,34.2c0-10.1-0.1-20.3-0.1-30.4C1432.8,288.5,1432.5,287.1,1433.6,286z"/>
	<path class="st8" d="M1266.5,469.9c11-1.3,22.1-0.7,33.2-0.7c-3.8,1.8-7.8,0.7-11.7,0.8C1280.8,470.1,1273.7,470,1266.5,469.9z"/>
	<path class="st8" d="M1332.5,468.9c11-1.3,22.1-0.7,33.2-0.7c-3.8,1.7-7.8,0.7-11.7,0.8C1346.8,469.1,1339.7,469,1332.5,468.9z"/>
	<path class="st8" d="M1758.8,456.2c10.7,0,21.5-0.6,32.2,0.7c-9.5,0-18.9,0.1-28.4,0.1C1761.3,457,1759.9,457.3,1758.8,456.2z"/>
	<path class="st8" d="M1926.8,192.8c0.8,10.4,1.4,20.7-0.1,31.1C1926.8,213.5,1926.8,203.1,1926.8,192.8z"/>
	<path class="st8" d="M1823.7,410.8c-10.3-0.2-20.6,0.9-30.9-0.9c8.7,0,17.5,0,26.2,0C1820.6,410,1822.3,409.5,1823.7,410.8z"/>
	<path class="st8" d="M1535.8,485.2c10,0,19.9,0,29.9,0c-4.8,1.8-9.8,0.7-14.7,0.7C1545.9,485.9,1540.8,486.9,1535.8,485.2z"/>
	<path class="st8" d="M1970,18.1c-9.7,1.3-19.5,0.7-29.2,0.7c5.2-1.9,10.5-0.5,15.8-0.8C1961,17.8,1965.5,18.1,1970,18.1z"/>
	<path class="st8" d="M1745.6,409c-4.1,1.7-8.4,0.5-12.5,0.7c-4.4,0.2-8.9,0.1-13.3,0.2c5.1-2,10.3-0.5,15.5-0.8
		C1738.7,408.8,1742.2,409,1745.6,409z"/>
	<path class="st8" d="M1912,19.1c-8.4,1.3-16.8,0.7-25.2,0.7C1895.2,18.1,1903.6,19.4,1912,19.1z"/>
	<path class="st8" d="M1432.8,356.8c1.4,7.7,0.7,15.4,0.8,23.2C1431.8,372.3,1433.1,364.5,1432.8,356.8z"/>
	<path class="st8" d="M1292,77.1c-7.4,1.3-14.8,0.7-22.2,0.8C1277.1,76,1284.6,77.4,1292,77.1z"/>
	<path class="st8" d="M1248,78.1c-7,1.3-14.1,0.7-21.2,0.7C1233.8,77,1241,78.4,1248,78.1z"/>
	<path class="st8" d="M1205,79.1c-7,1.3-14.1,0.7-21.2,0.7C1190.8,78,1198,79.4,1205,79.1z"/>
	<path class="st8" d="M1923.5,271.9c2.6-1.4,4.3-1.5,4.2,2.3c-0.2,4.9-0.1,9.8-0.1,14.7c-1.8-4.3-0.5-8.8-0.8-13.3
		C1926.7,273.3,1926.2,271.8,1923.5,271.9z"/>
	<path class="st8" d="M1332,76.1c-6.3,1.4-12.8,0.7-19.2,0.7C1319.1,75.1,1325.6,76.4,1332,76.1z"/>
	<path class="st8" d="M1327.5,122.9c5.7-1.3,11.4-0.7,17.2-0.7C1339,123.9,1333.3,122.6,1327.5,122.9z"/>
	<path class="st8" d="M1247.5,124.9c5.3-1.3,10.8-0.7,16.2-0.7C1258.4,125.9,1252.9,124.7,1247.5,124.9z"/>
	<path class="st8" d="M1671.9,367.9c0-5.3,0-10.6,0-15.9C1673.2,357.4,1673.2,362.6,1671.9,367.9z"/>
	<path class="st8" d="M1215.4,125.9c5-1.3,10.2-0.7,15.3-0.7C1225.7,126.9,1220.5,125.6,1215.4,125.9z"/>
	<path class="st8" d="M1338,422.1c-4.7,0.8-9.5,1.3-14.2-0.1C1328.5,422,1333.3,422,1338,422.1z"/>
	<path class="st8" d="M1911.5,65.9c4.8-0.8,9.6-1.4,14.3,0C1921,65.9,1916.3,65.9,1911.5,65.9z"/>
	<path class="st8" d="M1528.7,156.8c-4.6,0-9.3,0-13.9,0C1519.4,155.5,1524.1,155.5,1528.7,156.8z"/>
	<path class="st8" d="M1395.8,137.8c1.2,4.3,0.6,8.8,0.7,13.2C1394.8,146.6,1396.1,142.2,1395.8,137.8z"/>
	<path class="st8" d="M1361.5,121.9c4.3-1.3,8.8-0.7,13.2-0.7C1370.4,122.9,1365.9,121.6,1361.5,121.9z"/>
	<path class="st8" d="M1361,75.1c-4.3,1.3-8.8,0.7-13.2,0.7C1352.1,74.1,1356.6,75.4,1361,75.1z"/>
	<path class="st8" d="M813.7,382.3c-1.3-4-0.7-8.1-0.7-12.2C814.6,374,813.4,378.2,813.7,382.3z"/>
	<path class="st8" d="M880.7,313.8c-4,0-7.9,0-11.9,0C872.8,312.5,876.7,312.5,880.7,313.8z"/>
	<path class="st8" d="M1690.7,669.8c-3.6,0-7.3,0-10.9,0C1683.4,668.5,1687.1,668.5,1690.7,669.8z"/>
	<path class="st8" d="M1384,74.1c-3.7,1.3-7.4,0.8-11.2,0.7C1376.4,73.1,1380.2,74.4,1384,74.1z"/>
	<path class="st8" d="M1822.8,457.2c3.6,0,7.3,0,10.9,0C1830.1,458.5,1826.4,458.5,1822.8,457.2z"/>
	<path class="st8" d="M1589.8,769.7c1.3,3.3,0.7,6.8,0.8,10.2C1588.9,776.7,1590,773.1,1589.8,769.7z"/>
	<path class="st8" d="M1441.9,112.9c0-3.4-0.6-6.9,0.7-10.2C1442.5,106.2,1443.6,109.7,1441.9,112.9z"/>
	<path class="st8" d="M2009.7,17.8c-3.3,0-6.6,0-9.9,0C2003.1,16.5,2006.4,16.5,2009.7,17.8z"/>
	<path class="st8" d="M1853.9,439c0-3.3,0-6.6,0-9.9C1855.3,432.3,1855.3,435.7,1853.9,439z"/>
	<path class="st8" d="M1069.7,768.2c-1.3-3.3-0.7-6.8-0.8-10.2C1070.6,761.3,1069.4,764.8,1069.7,768.2z"/>
	<path class="st8" d="M1590.6,758.1c-0.1,3.4,0.6,6.9-0.7,10.2C1590,764.8,1588.9,761.3,1590.6,758.1z"/>
	<path class="st8" d="M900.8,361.2c3.1,0,6.2-0.5,9.2,0.7C906.9,361.7,903.8,362.8,900.8,361.2z"/>
	<path class="st8" d="M919.8,362.2c3.1,0,6.2-0.5,9.2,0.7C925.9,362.7,922.7,363.8,919.8,362.2z"/>
	<path class="st8" d="M937.8,363.2c3.1,0,6.2-0.5,9.2,0.7C943.9,363.7,940.8,364.8,937.8,363.2z"/>
	<path class="st8" d="M1385.5,120.9c3.1-0.8,6.1-1.7,9.1,0.1C1391.6,121,1388.5,120.9,1385.5,120.9z"/>
	<path class="st8" d="M1402,73.1c-3,1.3-6.1,0.8-9.2,0.7C1395.8,72.2,1398.9,73.3,1402,73.1z"/>
	<path class="st8" d="M1625.6,371c0,3,0.7,6.2-0.8,9.1C1625.1,377.1,1623.9,373.9,1625.6,371z"/>
	<path class="st8" d="M882.8,360.2c3.1,0,6.2-0.5,9.2,0.7C888.9,360.7,885.8,361.8,882.8,360.2z"/>
	<path class="st8" d="M765.8,359.8c1.2,3,0.8,6.1,0.8,9.2C764.9,366,766.1,362.8,765.8,359.8z"/>
	<path class="st8" d="M1196.9,308.9c0-3,0-5.9,0-8.9C1198.2,303,1198.2,306,1196.9,308.9z"/>
	<path class="st8" d="M1180.8,224.2c3,0,5.9,0,8.9,0.1C1186.7,225.4,1183.8,225.5,1180.8,224.2z"/>
	<path class="st8" d="M850.5,332.1c0,3,0,5.9,0,8.9C849.3,338,849.3,335,850.5,332.1z"/>
	<path class="st8" d="M1068.9,779.9c0.1-3.1-0.5-6.2,0.8-9.2C1069.4,773.8,1070.6,777,1068.9,779.9z"/>
	<path class="st8" d="M973.6,864.9c3-1.3,6.1-0.7,9.1-0.7C979.8,865.8,976.6,864.7,973.6,864.9z"/>
	<path class="st8" d="M1391.9,448.9c0-2.6,0-5.3,0-7.9C1393.3,443.7,1393.2,446.3,1391.9,448.9z"/>
	<path class="st8" d="M1206.6,443.1c0,2.6,0,5.3,0,7.9C1205.3,448.3,1205.3,445.7,1206.6,443.1z"/>
	<path class="st8" d="M766.8,381.7c1.2,2.7,0.7,5.5,0.7,8.2C765.9,387.3,767.1,384.5,766.8,381.7z"/>
	<path class="st8" d="M850,464.1c-2.8,1.4-5.6,1.2-8.4,0C844.4,464.1,847.2,464.1,850,464.1z"/>
	<path class="st8" d="M1442.7,146.2c-1.3-2.6-0.8-5.4-0.8-8.1C1443.6,140.6,1442.4,143.5,1442.7,146.2z"/>
	<path class="st8" d="M1651.7,324.8c-2.3,0-4.6,0-6.9,0C1647.1,323.5,1649.4,323.6,1651.7,324.8z"/>
	<path class="st8" d="M895.7,314.8c-2.4,0-4.9,0.4-7.2-0.7C890.9,314.3,893.4,313.2,895.7,314.8z"/>
	<path class="st8" d="M1417,72.1c-2.3,1.2-4.8,0.8-7.2,0.7C1412.1,71.2,1414.6,72.3,1417,72.1z"/>
	<path class="st8" d="M1415.8,175.2c2.3,0,4.6,0,6.9,0C1420.4,176.4,1418.1,176.4,1415.8,175.2z"/>
	<path class="st8" d="M812.7,360.3c-1.2-2.3-0.7-4.8-0.7-7.2C813.5,355.3,812.5,357.9,812.7,360.3z"/>
	<path class="st8" d="M973.9,343.9c0-2.3,0-4.6,0-6.9C975.2,339.4,975.2,341.7,973.9,343.9z"/>
	<path class="st8" d="M1625.6,344c0,2.3,0,4.6,0,6.9C1624.3,348.6,1624.3,346.3,1625.6,344z"/>
	<path class="st8" d="M1578,438.1c-2.3,1.3-4.8,0.8-7.2,0.7C1573.1,437.2,1575.6,438.3,1578,438.1z"/>
	<path class="st8" d="M1982.8,866.1c2.3,0,4.6,0,6.9,0C1987.4,867.5,1985.1,867.5,1982.8,866.1z"/>
	<path class="st8" d="M1479.9,281c-0.1-2.1-0.4-4.2,0.7-6.2C1480.5,276.8,1481.4,279,1479.9,281z"/>
	<path class="st8" d="M1632.7,123.8c-2,0-3.9,0-5.9,0C1628.8,122.6,1630.7,122.5,1632.7,123.8z"/>
	<path class="st8" d="M954.7,317.8c-2,0-5,0.9-3.1-3.1C951.5,316.9,953.7,316.8,954.7,317.8z"/>
	<path class="st8" d="M1994.5,483.9c2-1.1,4.1-0.8,6.2-0.7C1998.8,484.7,1996.6,483.8,1994.5,483.9z"/>
	<path class="st8" d="M764.8,347.7c1.2,2,0.8,4.1,0.7,6.2C764,352,765,349.8,764.8,347.7z"/>
	<path class="st8" d="M718.9,417.9c0-2,0-3.9,0-5.9C720.2,414,720.2,416,718.9,417.9z"/>
	<path class="st8" d="M1227.8,470.2c2,0,3.9,0,5.9,0C1231.7,471.4,1229.8,471.4,1227.8,470.2z"/>
	<path class="st8" d="M1780.7,763.3c-1.2-2-0.7-4.1-0.7-6.2C1781.4,759,1780.5,761.2,1780.7,763.3z"/>
	<path class="st8" d="M1450.9,687c0-2,0-3.9,0.1-5.9C1452.2,683,1452.2,685,1450.9,687z"/>
	<path class="st8" d="M1982.5,484.9c2-1.1,4.1-0.8,6.2-0.8C1986.8,485.7,1984.6,484.8,1982.5,484.9z"/>
	<path class="st8" d="M1779.9,780.9c0-2.1-0.5-4.2,0.7-6.2C1780.5,776.8,1781.5,779,1779.9,780.9z"/>
	<path class="st8" d="M767.8,395.8c1.1,1.9,0.8,4.1,0.8,6.2C767,400.1,768,397.9,767.8,395.8z"/>
	<path class="st8" d="M1510.8,866.1c2,0,3.9,0.1,5.9,0.1C1514.7,867.4,1512.7,867.5,1510.8,866.1z"/>
	<path class="st8" d="M1120.8,866.2c2,0,3.9,0,5.9,0C1124.7,867.5,1122.8,867.5,1120.8,866.2z"/>
	<path class="st8" d="M1267.8,866.1c2,0,3.9,0,5.9,0C1271.7,867.5,1269.8,867.5,1267.8,866.1z"/>
	<path class="st8" d="M1373.8,866.2c2,0,3.9-0.1,5.9-0.1C1377.8,867.5,1375.8,867.4,1373.8,866.2z"/>
	<path class="st8" d="M1850.8,866.1c2,0,3.9,0,5.9,0.1C1854.7,867.4,1852.7,867.5,1850.8,866.1z"/>
	<path class="st8" d="M868.8,359.2c1.8,0,3.5-0.2,5.2,0.7C872.2,359.8,870.4,360.6,868.8,359.2z"/>
	<path class="st8" d="M1394.6,125.1c0,1.6,0,3.3,0,4.9C1393.3,128.3,1393.4,126.7,1394.6,125.1z"/>
	<path class="st8" d="M763.8,337.7c1.1,1.6,0.9,3.4,0.8,5.2C763.1,341.4,763.9,339.5,763.8,337.7z"/>
	<path class="st8" d="M811.7,346.3c-1-1.6-0.8-3.5-0.7-5.2C812.3,342.6,811.6,344.5,811.7,346.3z"/>
	<path class="st8" d="M1972.5,485.9c1.6-1,3.4-0.8,5.2-0.7C1976.1,486.6,1974.3,485.8,1972.5,485.9z"/>
	<path class="st8" d="M1673.9,670.1c-1.6,1.1-3.4,0.9-5.1,0.8C1670.3,669.4,1672.2,670.2,1673.9,670.1z"/>
	<path class="st8" d="M814.7,395.3c-1.1-1.6-0.8-3.4-0.7-5.2C815.3,391.6,814.6,393.5,814.7,395.3z"/>
	<path class="st8" d="M2007.5,482.9c1.6-1,3.4-0.8,5.2-0.8C2011.2,483.6,2009.3,482.8,2007.5,482.9z"/>
	<path class="st8" d="M810.7,336.3c-1.1-1.6-0.8-3.4-0.8-5.2C811.4,332.6,810.6,334.5,810.7,336.3z"/>
	<path class="st8" d="M1434.6,268.1c0.1,1.8,0.3,3.6-0.7,5.3C1433.9,271.5,1433.1,269.6,1434.6,268.1z"/>
	<path class="st8" d="M1536.7,438.8c-1.7,0.1-3.5,0.3-5.1-0.8C1533.3,438.2,1535.2,437.4,1536.7,438.8z"/>
	<path class="st8" d="M1578.5,484.9c1.6-1,3.4-0.8,5.1-0.7C1582.1,485.6,1580.3,484.8,1578.5,484.9z"/>
	<path class="st6" d="M173.5,93.3c0-12.8-0.1-25.6,0-38.4c0.1-11.6,8-20.7,19.3-22.6c10-1.7,20.8,4.6,24.8,14.6
		c1.2,2.9,1.6,5.9,1.5,8.8c-1.3,34.8-2.8,69.6-4.1,104.3c-0.5,12.7-1,25.3-1.4,38c-0.4,13.2-9.5,22.9-21.9,23.2
		c-13.4,0.3-22.9-8.6-24-22.2c-1-12.6-2.8-25.1-7-37.2c-5.1-14.4-12.7-27.1-23.9-37.5c-6.7-6.2-12.5-13.5-20.8-17.9
		c-4.2-2.2-8.4-4.1-13.1-4.4c-14.3-0.9-21.8,4.5-26.1,18.6c-3.7,12.2-5.1,24.7-6.8,37.3c-1.9,13.4-3,26.8-2.3,40.3
		c0.3,5.4,1.2,10.6,2.5,15.7c4.9,18.4,18.3,25.5,36,28.1c30.7,4.5,61,10.8,88.6,26c24.3,13.4,42,32.2,47.9,60.1
		c7,33.1-2,62.2-24.6,86.8c-25.9,28.2-58.4,41.5-96.6,38.8c-25.5-1.8-48.9-10.9-70.8-23.9c-1.3-0.8-2.5-1.5-4.6-2.7
		c0,6.9-0.1,13.1,0,19.3c0.2,7.7,0.6,15.3,0.8,23c0.3,13.9-8.6,24.2-21.3,24.7c-13.6,0.5-24-8.8-24.6-22.7
		c-1.3-28.8-1.4-57.6,0.5-86.4c0.8-12.5,0.9-25,1.3-37.5c0.3-9.3,1-18.7,0.6-28c-0.5-12,8.8-24.4,23.9-23.9
		c13.8,0.4,22.4,12.2,22.2,26.7c-0.2,21.6,3.6,42.4,20.4,58c14.5,13.5,30.3,24.8,51,27.4c36.7,4.6,71.6-20.5,77.4-50.4
		c3.5-18.2-4.5-35.6-22.1-46.5c-16.3-10.1-34.5-14.8-52.9-18.7c-11.6-2.4-23.3-3.9-34.8-6.5c-35.5-7.9-56-30.7-63.6-65.8
		c-4.8-22.2-3.2-44.4-0.5-66.6c2-16.4,4.2-32.7,9.7-48.3c8.6-24.8,23.9-42.6,50.9-47.6c23.1-4.3,43.9,1.4,62.8,15
		c8.8,6.3,16.8,13.5,24.2,21.4C172.4,93.6,173,93.5,173.5,93.3z"/>
	<path class="st6" d="M285.6,342.2c0-17-0.7-34,0.1-51c1.3-28.1,5.9-55.7,19.3-80.9c11.8-22.1,29.5-36.7,54.7-40.9
		c18.7-3.1,36.8,0.4,54.5,6.4c14.4,4.9,28.1,11.2,40.4,20.4c1,0.7,2,2.3,3.4,1.4c1.2-0.8,0.5-2.5,0.6-3.7c0-11.5,0-23,0-34.5
		c0.1-13.8,9.8-24,22.8-24c12.6,0,23,10.1,23.1,23.4c0.2,32.8,0.2,65.7,0,98.5c-0.1,11.2-6.8,19.8-17,22.6
		c-10.2,2.8-19.4-0.9-25.8-10.3c-11.3-16.5-24.6-31.2-42.1-41.2c-13.1-7.5-27.3-12.4-42.4-13.9c-12.5-1.3-22.5,3.1-29.3,14.1
		c-8.3,13.3-12,28.2-13.9,43.4c-4.6,37.6-3.2,75.5-2.5,113.3c0.2,8.7,0.9,17.3,3.8,25.5c8.9,24.9,29.1,39.5,56.3,40.3
		c12.7,0.4,25.3,0.4,38-0.9c9.9-1,18.5-5.8,25.7-12.4c11.4-10.4,18-23.5,20.7-38.9c2.6-14.4,1.8-28.9,1.7-43.3
		c-0.1-9.8,4.2-17.1,13-21.2c8.8-4.1,17.2-2.8,24.8,3.3c4.3,3.5,7,8.1,7.5,13.7c2.3,25.8,1.7,51.4-7.2,75.9
		c-13.6,37.2-39.5,62-79.1,68c-26.5,4-53.9,4.9-80.1-4.2c-38-13.2-59.5-41.2-68.4-79.4c-4.4-19.1-2.6-38.8-3.1-58.2
		c-0.1-3.7,0-7.3,0-11C285,342.2,285.3,342.2,285.6,342.2z"/>
	<path class="st0" d="M7.7,771.5c0-26.3,0-52.6,0-79c0-12.8,6.6-19.5,19.3-19.5c32.2,0,64.3,0,96.5,0c8.1,0,12.5,5,11.4,12.8
		c-0.7,5.2-4.8,8.3-11.2,8.3c-24.3,0-48.6,0-73,0c-5.2,0-10.3,0.1-15.5,0c-2.6-0.1-3.5,0.9-3.5,3.5c0.1,18.3,0.1,36.6,0,55
		c0,4.2,2.5,3.5,4.9,3.5c28.3,0,56.6,0,85,0c7,0,11.1,3.6,11.4,9.9c0.3,7-3.6,11.2-10.9,11.2c-26.5,0.1-53,0-79.5,0
		c-10.8,0-10.8,0-10.8,11c0,21,0,42,0,63c0,10.2-4.1,15.1-12.4,15c-7.9-0.1-11.6-5-11.6-15.2C7.7,824.5,7.7,798,7.7,771.5z"/>
	<path class="st9" d="M1755.7,768.8c-0.4,19.4-4.9,37.6-17.2,53.1c-11.9,14.8-27.3,22.8-46.3,24.4c-22.4,1.9-41.8-4.3-57.4-20.9
		c-10.8-11.6-16.5-25.7-18.7-41.2c-3-20.2-0.7-39.8,9-58.2c13.5-25.6,41.3-37.3,68.3-34.5c34.8,3.7,57.9,31.3,61.5,65.8
		C1755.3,761.2,1755.8,764.9,1755.7,768.8z"/>
	<path class="st9" d="M344.7,769c-0.4,19.3-4.8,37.2-17,52.6c-11.8,14.9-27.2,23-46.1,24.7c-22.6,2-42.2-4.2-57.8-21
		c-10.8-11.6-16.4-25.8-18.7-41.2c-2.9-20.6-0.6-40.5,9.6-59c14-25.4,41.1-36.1,66.9-33.6c37,3.6,58.9,32.6,62.3,66
		C344.3,761.3,344.8,765.1,344.7,769z"/>
	<path class="st9" d="M658.5,162.5c0-15.6,0.1-31.3-0.1-46.9c0-3.9,0.7-5.5,5.1-5.5c29.7-0.2,59.2,0.5,88.3,7
		c8.9,2,17.7,4.8,25.2,10.4c5.5,4.1,8.2,9.4,5.8,16.1c-7.9,22.2-19.6,41.1-43.8,48.9c-24.7,7.9-49.2,16.3-74.7,21.3
		c-4.6,0.9-5.8,0-5.7-4.8c0.3-15.5,0.1-31,0.1-46.4C658.6,162.5,658.6,162.5,658.5,162.5z"/>
	<path class="st9" d="M994.1,108.4c10.2,25.2,19.9,49,29.6,72.9c6.3,15.4,12.4,30.8,18.8,46.2c1.5,3.6,1.7,5.4-3,6.1
		c-23,3.6-45.9,7.4-68.9,11.4c-4.6,0.8-4.5-1.1-3.8-4.5c8.5-41.2,16.9-82.4,25.3-123.5C992.7,114.6,993.2,112.2,994.1,108.4z"/>
	<path class="st9" d="M929.7,769c0-23.3,0.1-46.6-0.1-69.9c0-3.9,0.9-5.2,5-5c15.1,0.6,30.3-0.4,45.4,0.7
		c31.9,2.5,56.8,24.7,62.7,56.2c3.9,21,2,41.2-9.4,59.7c-12.3,20-30.9,30.5-54,32.1c-15.2,1.1-30.6,0.2-45.9,0.4
		c-4,0.1-3.7-2.1-3.7-4.7C929.8,815.3,929.7,792.2,929.7,769z"/>
	<path class="st9" d="M1197.5,698.8c4.5,11.3,8.8,22,13,32.8c8.5,21.5,16.8,43.1,25.4,64.5c1.6,4,1.1,4.9-3.3,4.9
		c-23.8-0.2-47.6-0.1-71.4-0.1c-2,0-5.1,1.1-3.4-3.3c12.8-32.1,25.5-64.3,38.3-96.4C1196.4,700.5,1196.8,700,1197.5,698.8z"/>
</g>
</svg>
