<svg xmlns="http://www.w3.org/2000/svg" viewBox="0 0 283.78 306.36"><defs><style>.a{fill:#ffbc47;}.b{fill:#cf8b17;}.c{fill:#ffab19;}.d{fill:#fff;}</style></defs><title>OpenBlock-Desktop</title><path class="a" d="M0,236.43c0-2,0-4,0-6Q0,128,0,25.51a37.76,37.76,0,0,1,.66-7.63A22,22,0,0,1,22.63.06H176.68c28.08,0,56.15.06,84.23-.06a22.33,22.33,0,0,1,22.83,22.42q-.08,98-.05,196.05c0,6.4-.06,12.79-.09,19.19-2.36,11-11,17.94-22.26,18-12.39,0-24.79.13-37.18-.06a11,11,0,0,0-9.75,4.9c-5.36,7.17-11,14.11-16.54,21.17a27.39,27.39,0,0,1-3.63,3.81,10.93,10.93,0,0,1-7.43,2.84q-44.73,0-89.46,0c-4.64,0-8-2.29-10.77-5.8-5.61-7.18-11.29-14.31-16.83-21.55a12.39,12.39,0,0,0-11-5.39c-12.15.28-24.3.22-36.45.05C13,255.46,6.19,251,1.75,242.93A24.38,24.38,0,0,1,0,237.38"/><path class="b" d="M0,249.14"/><path class="b" d="M0,237.92a17.51,17.51,0,0,0,3,6c4.41,7,10.68,10.89,19,11,12.63.13,25.27.21,37.9,0,4.49-.09,7.42,1.85,9.94,5.07,6,7.66,11.87,15.39,17.94,23a12.14,12.14,0,0,0,10,4.75c29.1-.08,58.21-.15,87.31.05,5.37,0,8.94-2.26,12-6.12,5.14-6.5,10.23-13,15.36-19.54a43.75,43.75,0,0,1,3.57-4.49,8.71,8.71,0,0,1,6.43-2.65c13,.06,25.91,0,38.86,0a22.25,22.25,0,0,0,21.38-15.1,5.42,5.42,0,0,1,.93-2.17c0,4.55.32,9.12.08,13.66a21.72,21.72,0,0,1-20.46,20.46c-11.26.56-22.54.27-33.81.14-4.13,0-7.4,1.07-10.12,4.3-7.42,8.8-15,17.47-22.5,26.2a10.49,10.49,0,0,1-8.55,3.92q-46.3-.13-92.6,0a10.73,10.73,0,0,1-8.74-4.06c-7.23-8.44-14.6-16.76-21.68-25.33-3.1-3.75-6.68-5.16-11.48-5-10.15.26-20.31.14-30.46.08-6.66,0-12.58-2.08-17.23-7.07-3.14-3.36-6-8.23-6-12.94"/><path class="c" d="M259.35,12.27a22.72,22.72,0,0,1,5.9.73c4.89,1.31,7.29,4.92,7.81,10a11.82,11.82,0,0,1,0,1.2q0,103.78,0,207.56a11.93,11.93,0,0,1-5.07,9.81,8.77,8.77,0,0,1-5.63,1.58c-14.32,0-28.63,0-43,0a12.51,12.51,0,0,0-10.79,5.44c-3.76,5-7.79,9.86-11.68,14.8-1.87,2.37-3.63,4.83-5.53,7.19-1.75,2.17-3.49,4.34-6.49,5a14.73,14.73,0,0,1-3.08.28H107c-1.43,0-2.86.19-4.27.27a11.15,11.15,0,0,1-6.57-1.72c-2.34-1.46-3.64-3.8-5.18-5.87-4.23-5.68-8.84-11.06-13.09-16.72a30.58,30.58,0,0,0-5.76-6.31,10.55,10.55,0,0,0-6.62-2.31c-14.32,0-28.64-.09-43,.06A11.47,11.47,0,0,1,11,231.65q.13-52.19,0-104.38h0c0-34.63.12-69.27-.11-103.9A11.29,11.29,0,0,1,21.66,12.31"/><path class="d" d="M71.1,101.89c-3,0-5.92,0-8.88,0-3.25,0-5.47-1.88-7.28-4.31a4.78,4.78,0,0,1-.7-3c0-5,0-10.08,0-15.12a5.94,5.94,0,0,1,3.12-5.24A14,14,0,0,1,64.8,72.2c5.28,0,10.56,0,15.84,0,1.16,0,1.72-.18,2.15-1.52A28,28,0,0,1,86,63.93a21,21,0,0,1,6.18-5.8,15.34,15.34,0,0,1,8.92-2.59q43.44.05,86.88,0a17.88,17.88,0,0,1,9.71,3.11c3.84,2.39,6,6,7.83,9.87a1.27,1.27,0,0,1,.19.43c0,1.12.07,2.39,1.06,3s2.19.22,3.29.23c3.52,0,7,.13,10.56,0a16.84,16.84,0,0,1,6.53.92c3.24,1.18,5.64,3.1,5.56,7.33-.08,4.64-.14,9.28,0,13.92.1,3-1.45,4.76-3.68,6.21a8.81,8.81,0,0,1-5.18,1.38c-5.2-.12-10.4-.05-15.6,0-1.84,0-1.87,0-1.88,1.87,0,3.6,0,7.2,0,10.8,0,2.14,0,2.16,2.31,2.16q7,0,13.92,0a13.53,13.53,0,0,1,7.39,2.17,6,6,0,0,1,2.66,5.09c.07,5.28,0,10.56,0,15.84a4.51,4.51,0,0,1-1.35,3.2,9.64,9.64,0,0,1-7.76,3.42c-5-.18-10.08-.06-15.12,0-2,0-2.06,0-2.06,1.91q0,5.88,0,11.76c0,1.7,0,1.75,1.75,1.75,5.44,0,10.88.06,16.32,0,3.39,0,5.66,1.81,7.59,4.23a4.64,4.64,0,0,1,.66,3c0,4.8-.09,9.6,0,14.4.09,4.15-2.5,6.09-5.65,7.29a16.35,16.35,0,0,1-6.31.83c-4.16-.11-8.32,0-12.48,0-1.67,0-2.11.35-2.46,1.9a19.63,19.63,0,0,1-18.76,15c-29-.1-57.92-.06-86.88,0A14.11,14.11,0,0,1,93,206a22.82,22.82,0,0,1-4.12-2.77A23.43,23.43,0,0,1,82.73,193c-.39-1.21-.85-1.45-1.92-1.45-5.52,0-11,0-16.56,0a12.12,12.12,0,0,1-8-3,5.62,5.62,0,0,1-2-4.19c0-5.28,0-10.56,0-15.84a4.37,4.37,0,0,1,1.23-3,9.67,9.67,0,0,1,7.89-3.67c5.75.19,11.52.06,17.28,0,1.87,0,1.9,0,1.91-1.82,0-4,0-8,0-12,0-1.27-.45-1.64-1.67-1.63-6.16,0-12.32,0-18.48,0-3.48,0-5.72-2-7.62-4.57a4.35,4.35,0,0,1-.58-2.75c0-4.8,0-9.6,0-14.4.06-4.42,2.82-6.32,6.2-7.35,2.72-.83,5.51-.59,8.28-.6,3.92,0,7.84,0,11.76,0,2,0,2,0,2.06-1.92,0-3.76,0-7.52,0-11.28,0-1.25-.42-1.68-1.66-1.65C77.66,101.93,74.38,101.89,71.1,101.89Z"/><path class="c" d="M109.23,93.44c-6.7.4-12.82-5.25-13.19-12.18a12.93,12.93,0,0,1,25.79-1.74A12.89,12.89,0,0,1,109.23,93.44Z"/></svg>